<svg xmlns="http://www.w3.org/2000/svg" version="1.1" xmlns:xlink="http://www.w3.org/1999/xlink" xmlns:svgjs="http://svgjs.dev/svgjs" width="1000" height="1000" viewBox="0 0 1000 1000"><rect width="1000" height="1000" fill="#000000"></rect><g transform="matrix(0.7,0,0,0.7,150.11896067415722,424.28811910279916)"><svg viewBox="0 0 356 77" data-background-color="#ffffff" preserveAspectRatio="xMidYMid meet" height="216" width="1000" xmlns="http://www.w3.org/2000/svg" xmlns:xlink="http://www.w3.org/1999/xlink"><g id="tight-bounds" transform="matrix(1,0,0,1,-0.06049999999996203,0.05697638283379547)"><svg viewBox="0 0 356.12052 76.88604723433242" height="76.88604723433242" width="356.12052"><g><svg viewBox="0 0 356.12052 76.88604723433242" height="76.88604723433242" width="356.12052"><g><svg viewBox="0 0 356.12052 76.88604723433242" height="76.88604723433242" width="356.12052"><g><path d="M0 76.886v-76.886h356.121v76.886z" fill="#ffffff" stroke="transparent" stroke-width="0" rx="0%" data-fill-palette-color="tertiary"></path><path d="M3.283 73.603v-70.32h349.554v70.32z" fill="#000000" stroke="transparent" stroke-width="0" rx="0%" data-fill-palette-color="quaternary"></path><path d="M9.85 67.036v-57.186h336.421v57.186z" fill="#ffffff" stroke="transparent" stroke-width="0" data-fill-palette-color="tertiary"></path></g><g transform="matrix(1,0,0,1,19.69974,19.69974)" id="textblocktransform"><svg viewBox="0 0 316.72104 37.486567234332426" height="37.486567234332426" width="316.72104" id="textblock"><g><svg viewBox="0 0 316.72104 37.486567234332426" height="37.486567234332426" width="316.72104"><g transform="matrix(1,0,0,1,0,0)"><svg width="316.72104" viewBox="3.8499999046325684 -34.349998474121094 293.5799865722656 34.75" height="37.486567234332426" data-palette-color="#ffffff"><path d="M7.9 0L3.85 0 3.85-33.7 7.9-33.7 7.9 0ZM26.55-33.7L13.7-16.65 27.25 0 22 0 8.7-16.65 21.55-33.7 26.55-33.7ZM53.05-12.7L53.05-12.7 53.05-33.7 57.1-33.7 57.1-12.8Q57.1-6.3 53.82-2.95 50.55 0.4 44.7 0.4L44.7 0.4Q38.95 0.4 35.7-2.88 32.45-6.15 32.45-12.4L32.45-12.4 32.45-33.7 36.5-33.7 36.5-12.45Q36.5-7.8 38.72-5.6 40.95-3.4 44.7-3.4L44.7-3.4Q53.05-3.4 53.05-12.7ZM79-21.2L82.5-33.2 86.55-33.2 90.25-21.2 95.34-4.1Q97.65-15.15 99.05-21.15L99.05-21.15 101.9-33.7 106-33.7 98.09 0 92.9 0 89.65-10.65 84.59-27.5Q83.05-21.6 79.8-10.65L79.8-10.65 76.65 0 71.5 0 62.7-33.7 66.95-33.7 70.09-21.2 74.25-4.25Q77.05-14.5 79-21.2L79-21.2ZM118.69-14.2L118.04-12.3 129.99-12.3 129.34-14.25 124.09-30.45Q123.49-28.3 118.69-14.2L118.69-14.2ZM138.44 0L134.09 0 131.14-8.85 116.89-8.85 113.89 0 109.54 0 121.29-33.7 126.89-33.7 138.44 0ZM148.39 0L144.34 0 144.34-33.7 148.39-33.7 148.39 0ZM153.44-33.7L175.69-33.7 175.69-30.15 166.59-30.15 166.59 0 162.54 0 162.54-30.15 153.44-30.15 153.44-33.7ZM204.54-32.35L204.54-32.35 204.54-28.2Q202.34-29.35 200.59-29.85 198.84-30.35 195.99-30.35L195.99-30.35Q190.54-30.35 186.91-26.65 183.29-22.95 183.29-17L183.29-17Q183.29-10.8 186.89-7.1 190.49-3.4 196.44-3.4L196.44-3.4Q201.24-3.4 204.64-5.95L204.64-5.95 204.64-1.7Q201.54 0.4 196.14 0.4L196.14 0.4Q188.54 0.4 183.79-4.28 179.04-8.95 179.04-17L179.04-17Q179.04-24.6 183.86-29.38 188.69-34.15 195.99-34.15L195.99-34.15Q201.24-34.15 204.54-32.35ZM209.13-17L209.13-17Q209.13-24.95 213.21-29.65 217.28-34.35 224.23-34.35L224.23-34.35Q231.33-34.35 235.36-29.68 239.38-25 239.38-17L239.38-17Q239.38-9.05 235.31-4.33 231.23 0.4 224.28 0.4L224.28 0.4Q217.43 0.4 213.28-4.35 209.13-9.1 209.13-17ZM213.38-17L213.38-17Q213.38-10.75 216.36-7.1 219.33-3.45 224.28-3.45L224.28-3.45Q229.43-3.45 232.26-7.05 235.08-10.65 235.08-17 235.08-23.35 232.23-26.95 229.38-30.55 224.23-30.55L224.23-30.55Q219.13-30.55 216.26-26.93 213.38-23.3 213.38-17ZM249.68-30.1L249.68-3.55 255.73-3.55Q261.98-3.55 265.18-7.43 268.38-11.3 268.38-17.1L268.38-17.1Q268.38-22.6 264.81-26.35 261.23-30.1 255.53-30.1L255.53-30.1 249.68-30.1ZM245.58 0L245.58-33.7 255.58-33.7Q263.03-33.7 267.81-29.08 272.58-24.45 272.58-17.1L272.58-17.1Q272.58-9.8 268.16-4.9 263.73 0 255.78 0L255.78 0 245.58 0ZM282.68-15.05L282.68-3.55 297.43-3.55 297.43 0 278.63 0 278.63-33.7 297.18-33.7 297.18-30.15 282.68-30.15 282.68-18.6 295.48-18.6 295.48-15.05 282.68-15.05Z" opacity="1" transform="matrix(1,0,0,1,0,0)" fill="#000000" class="undefined-text-0" data-fill-palette-color="quaternary" id="text-0"></path></svg></g></svg></g></svg></g></svg></g><g></g></svg></g><defs></defs></svg><rect width="356.12052" height="76.88604723433242" fill="none" stroke="none" visibility="hidden"></rect></g></svg></g></svg>